<mxfile host="app.diagrams.net" modified="2023-08-30T11:11:17.238Z" agent="Mozilla/5.0 (Windows NT 10.0; Win64; x64) AppleWebKit/537.36 (KHTML, like Gecko) Chrome/116.0.0.0 Safari/537.36" etag="SnfXWKpeXIKYwzTpNXv5" version="21.7.0" type="device">
  <diagram id="C5RBs43oDa-KdzZeNtuy" name="Page-1">
    <mxGraphModel dx="1877" dy="534" grid="1" gridSize="10" guides="1" tooltips="1" connect="1" arrows="1" fold="1" page="1" pageScale="1" pageWidth="827" pageHeight="1169" math="0" shadow="0">
      <root>
        <mxCell id="WIyWlLk6GJQsqaUBKTNV-0" />
        <mxCell id="WIyWlLk6GJQsqaUBKTNV-1" parent="WIyWlLk6GJQsqaUBKTNV-0" />
        <mxCell id="bnlQOimCdnCWoGnJ-0to-18" style="edgeStyle=orthogonalEdgeStyle;rounded=0;orthogonalLoop=1;jettySize=auto;html=1;entryX=0.5;entryY=0;entryDx=0;entryDy=0;" parent="WIyWlLk6GJQsqaUBKTNV-1" source="bnlQOimCdnCWoGnJ-0to-15" target="bnlQOimCdnCWoGnJ-0to-5" edge="1">
          <mxGeometry relative="1" as="geometry">
            <Array as="points">
              <mxPoint x="330" y="240" />
              <mxPoint x="310" y="240" />
            </Array>
          </mxGeometry>
        </mxCell>
        <mxCell id="bnlQOimCdnCWoGnJ-0to-15" value="" style="rounded=0;whiteSpace=wrap;html=1;" parent="WIyWlLk6GJQsqaUBKTNV-1" vertex="1">
          <mxGeometry x="220" y="100" width="220" height="100" as="geometry" />
        </mxCell>
        <mxCell id="bnlQOimCdnCWoGnJ-0to-0" value="FSM" style="rounded=0;whiteSpace=wrap;html=1;fillColor=#0050ef;fontColor=#ffffff;strokeColor=#001DBC;fontSize=15;" parent="WIyWlLk6GJQsqaUBKTNV-1" vertex="1">
          <mxGeometry x="20" y="20" width="120" height="60" as="geometry" />
        </mxCell>
        <mxCell id="bnlQOimCdnCWoGnJ-0to-1" value="Finite State Machine&lt;br&gt;(유한 상태 기계)" style="text;html=1;strokeColor=none;fillColor=none;align=center;verticalAlign=middle;whiteSpace=wrap;rounded=0;" parent="WIyWlLk6GJQsqaUBKTNV-1" vertex="1">
          <mxGeometry x="150" y="20" width="170" height="60" as="geometry" />
        </mxCell>
        <mxCell id="bnlQOimCdnCWoGnJ-0to-2" value="Move" style="rounded=0;whiteSpace=wrap;html=1;" parent="WIyWlLk6GJQsqaUBKTNV-1" vertex="1">
          <mxGeometry x="150" y="330" width="80" height="40" as="geometry" />
        </mxCell>
        <mxCell id="bnlQOimCdnCWoGnJ-0to-3" value="Actor" style="shape=umlActor;verticalLabelPosition=bottom;verticalAlign=top;html=1;outlineConnect=0;" parent="WIyWlLk6GJQsqaUBKTNV-1" vertex="1">
          <mxGeometry x="240" y="110" width="30" height="60" as="geometry" />
        </mxCell>
        <mxCell id="bnlQOimCdnCWoGnJ-0to-4" value="Idle" style="rounded=0;whiteSpace=wrap;html=1;" parent="WIyWlLk6GJQsqaUBKTNV-1" vertex="1">
          <mxGeometry x="30" y="330" width="80" height="40" as="geometry" />
        </mxCell>
        <mxCell id="bnlQOimCdnCWoGnJ-0to-5" value="Jump" style="rounded=0;whiteSpace=wrap;html=1;" parent="WIyWlLk6GJQsqaUBKTNV-1" vertex="1">
          <mxGeometry x="270" y="330" width="80" height="40" as="geometry" />
        </mxCell>
        <mxCell id="bnlQOimCdnCWoGnJ-0to-6" value="Fall" style="rounded=0;whiteSpace=wrap;html=1;" parent="WIyWlLk6GJQsqaUBKTNV-1" vertex="1">
          <mxGeometry x="390" y="330" width="80" height="40" as="geometry" />
        </mxCell>
        <mxCell id="bnlQOimCdnCWoGnJ-0to-7" value="Land" style="rounded=0;whiteSpace=wrap;html=1;" parent="WIyWlLk6GJQsqaUBKTNV-1" vertex="1">
          <mxGeometry x="510" y="330" width="80" height="40" as="geometry" />
        </mxCell>
        <mxCell id="bnlQOimCdnCWoGnJ-0to-8" value="Attack" style="rounded=0;whiteSpace=wrap;html=1;" parent="WIyWlLk6GJQsqaUBKTNV-1" vertex="1">
          <mxGeometry x="630" y="330" width="80" height="40" as="geometry" />
        </mxCell>
        <mxCell id="bnlQOimCdnCWoGnJ-0to-9" value="1. 아무것도 안함" style="rounded=0;whiteSpace=wrap;html=1;" parent="WIyWlLk6GJQsqaUBKTNV-1" vertex="1">
          <mxGeometry x="20" y="370" width="100" height="150" as="geometry" />
        </mxCell>
        <mxCell id="bnlQOimCdnCWoGnJ-0to-10" value="1. 아무것도 안함" style="rounded=0;whiteSpace=wrap;html=1;" parent="WIyWlLk6GJQsqaUBKTNV-1" vertex="1">
          <mxGeometry x="140" y="370" width="100" height="150" as="geometry" />
        </mxCell>
        <mxCell id="bnlQOimCdnCWoGnJ-0to-11" value="1. 위쪽으로 힘을 가함&lt;br&gt;2. Y 축 속도가 0 이하일때까지 기다림&lt;br&gt;3. 발이 땅에 닿았으면 Fall , 아닌데 방향입력 없으면 Idle, 있으면 Move" style="rounded=0;whiteSpace=wrap;html=1;" parent="WIyWlLk6GJQsqaUBKTNV-1" vertex="1">
          <mxGeometry x="260" y="370" width="100" height="150" as="geometry" />
        </mxCell>
        <mxCell id="bnlQOimCdnCWoGnJ-0to-12" value="1. 시작위치저장&lt;br&gt;2. 발이 땅에 닿을때 까지 기다림&lt;br&gt;3. 시작위치와 착지위치간의 차이를 계산해서 Land 혹은 Idle/Move&amp;nbsp;" style="rounded=0;whiteSpace=wrap;html=1;" parent="WIyWlLk6GJQsqaUBKTNV-1" vertex="1">
          <mxGeometry x="380" y="370" width="100" height="150" as="geometry" />
        </mxCell>
        <mxCell id="bnlQOimCdnCWoGnJ-0to-13" value="1.모션이 끝날때까지 기다림&lt;br&gt;2. Idle/ Move" style="rounded=0;whiteSpace=wrap;html=1;" parent="WIyWlLk6GJQsqaUBKTNV-1" vertex="1">
          <mxGeometry x="500" y="370" width="100" height="150" as="geometry" />
        </mxCell>
        <mxCell id="bnlQOimCdnCWoGnJ-0to-14" value="1. 모션이 끝날때 까지 기다림&lt;br&gt;2. Idle / Move" style="rounded=0;whiteSpace=wrap;html=1;" parent="WIyWlLk6GJQsqaUBKTNV-1" vertex="1">
          <mxGeometry x="620" y="370" width="100" height="150" as="geometry" />
        </mxCell>
        <mxCell id="bnlQOimCdnCWoGnJ-0to-16" value="Machine" style="text;html=1;strokeColor=none;fillColor=none;align=center;verticalAlign=middle;whiteSpace=wrap;rounded=0;" parent="WIyWlLk6GJQsqaUBKTNV-1" vertex="1">
          <mxGeometry x="314" y="105" width="100" height="30" as="geometry" />
        </mxCell>
        <mxCell id="bnlQOimCdnCWoGnJ-0to-17" value=".ChangeState(newState)" style="text;html=1;strokeColor=none;fillColor=none;align=center;verticalAlign=middle;whiteSpace=wrap;rounded=0;" parent="WIyWlLk6GJQsqaUBKTNV-1" vertex="1">
          <mxGeometry x="450" y="135" width="140" height="40" as="geometry" />
        </mxCell>
        <mxCell id="bnlQOimCdnCWoGnJ-0to-20" value="«enum»&lt;br&gt;&lt;b&gt;State&lt;br&gt;&lt;br&gt;Idle,&lt;br&gt;Move,&lt;br&gt;Jump,&lt;br&gt;Fall,&lt;br&gt;Land,&lt;br&gt;Attack&lt;br&gt;&lt;/b&gt;" style="html=1;whiteSpace=wrap;" parent="WIyWlLk6GJQsqaUBKTNV-1" vertex="1">
          <mxGeometry x="20" y="100" width="80" height="130" as="geometry" />
        </mxCell>
        <mxCell id="bnlQOimCdnCWoGnJ-0to-21" value="currentState" style="text;html=1;strokeColor=none;fillColor=none;align=center;verticalAlign=middle;whiteSpace=wrap;rounded=0;" parent="WIyWlLk6GJQsqaUBKTNV-1" vertex="1">
          <mxGeometry x="310" y="140" width="100" height="30" as="geometry" />
        </mxCell>
        <mxCell id="bnlQOimCdnCWoGnJ-0to-22" value="&lt;div style=&quot;text-align: left;&quot;&gt;&lt;span style=&quot;background-color: initial;&quot;&gt;Update()&lt;/span&gt;&lt;/div&gt;&lt;div style=&quot;text-align: left;&quot;&gt;&lt;span style=&quot;background-color: initial;&quot;&gt;{&lt;/span&gt;&lt;/div&gt;&lt;div style=&quot;text-align: left;&quot;&gt;&lt;span style=&quot;background-color: initial;&quot;&gt;&amp;nbsp; &amp;nbsp; ChangeState(currentState.MoveNext())&lt;/span&gt;&lt;/div&gt;&lt;div style=&quot;text-align: left;&quot;&gt;&lt;span style=&quot;background-color: initial;&quot;&gt;}&lt;/span&gt;&lt;/div&gt;" style="text;html=1;strokeColor=none;fillColor=none;align=center;verticalAlign=middle;whiteSpace=wrap;rounded=0;" parent="WIyWlLk6GJQsqaUBKTNV-1" vertex="1">
          <mxGeometry x="360" y="210" width="260" height="70" as="geometry" />
        </mxCell>
        <mxCell id="bnlQOimCdnCWoGnJ-0to-23" value="return" style="endArrow=open;endSize=12;dashed=1;html=1;rounded=0;exitX=0.75;exitY=0;exitDx=0;exitDy=0;entryX=0.602;entryY=1.037;entryDx=0;entryDy=0;entryPerimeter=0;" parent="WIyWlLk6GJQsqaUBKTNV-1" source="bnlQOimCdnCWoGnJ-0to-5" target="bnlQOimCdnCWoGnJ-0to-15" edge="1">
          <mxGeometry width="160" relative="1" as="geometry">
            <mxPoint x="340" y="310" as="sourcePoint" />
            <mxPoint x="500" y="310" as="targetPoint" />
          </mxGeometry>
        </mxCell>
        <mxCell id="bnlQOimCdnCWoGnJ-0to-33" style="edgeStyle=orthogonalEdgeStyle;rounded=0;orthogonalLoop=1;jettySize=auto;html=1;entryX=0.75;entryY=1;entryDx=0;entryDy=0;" parent="WIyWlLk6GJQsqaUBKTNV-1" source="bnlQOimCdnCWoGnJ-0to-25" target="bnlQOimCdnCWoGnJ-0to-26" edge="1">
          <mxGeometry relative="1" as="geometry">
            <Array as="points">
              <mxPoint x="110" y="660" />
              <mxPoint x="110" y="660" />
            </Array>
          </mxGeometry>
        </mxCell>
        <mxCell id="bnlQOimCdnCWoGnJ-0to-25" value="Move" style="rounded=0;whiteSpace=wrap;html=1;" parent="WIyWlLk6GJQsqaUBKTNV-1" vertex="1">
          <mxGeometry x="50" y="670" width="80" height="40" as="geometry" />
        </mxCell>
        <mxCell id="bnlQOimCdnCWoGnJ-0to-31" style="edgeStyle=orthogonalEdgeStyle;rounded=0;orthogonalLoop=1;jettySize=auto;html=1;entryX=0.25;entryY=0;entryDx=0;entryDy=0;exitX=0.25;exitY=1;exitDx=0;exitDy=0;" parent="WIyWlLk6GJQsqaUBKTNV-1" source="bnlQOimCdnCWoGnJ-0to-26" target="bnlQOimCdnCWoGnJ-0to-25" edge="1">
          <mxGeometry relative="1" as="geometry" />
        </mxCell>
        <mxCell id="bnlQOimCdnCWoGnJ-0to-26" value="Idle" style="rounded=0;whiteSpace=wrap;html=1;" parent="WIyWlLk6GJQsqaUBKTNV-1" vertex="1">
          <mxGeometry x="50" y="590" width="80" height="40" as="geometry" />
        </mxCell>
        <mxCell id="bnlQOimCdnCWoGnJ-0to-35" style="edgeStyle=orthogonalEdgeStyle;rounded=0;orthogonalLoop=1;jettySize=auto;html=1;entryX=0.5;entryY=0;entryDx=0;entryDy=0;" parent="WIyWlLk6GJQsqaUBKTNV-1" source="bnlQOimCdnCWoGnJ-0to-27" target="bnlQOimCdnCWoGnJ-0to-28" edge="1">
          <mxGeometry relative="1" as="geometry" />
        </mxCell>
        <mxCell id="bnlQOimCdnCWoGnJ-0to-37" style="edgeStyle=orthogonalEdgeStyle;rounded=0;orthogonalLoop=1;jettySize=auto;html=1;entryX=0.5;entryY=0;entryDx=0;entryDy=0;" parent="WIyWlLk6GJQsqaUBKTNV-1" source="bnlQOimCdnCWoGnJ-0to-27" target="bnlQOimCdnCWoGnJ-0to-29" edge="1">
          <mxGeometry relative="1" as="geometry" />
        </mxCell>
        <mxCell id="bnlQOimCdnCWoGnJ-0to-46" style="edgeStyle=orthogonalEdgeStyle;rounded=0;orthogonalLoop=1;jettySize=auto;html=1;entryX=1;entryY=0.5;entryDx=0;entryDy=0;" parent="WIyWlLk6GJQsqaUBKTNV-1" source="bnlQOimCdnCWoGnJ-0to-27" target="bnlQOimCdnCWoGnJ-0to-26" edge="1">
          <mxGeometry relative="1" as="geometry" />
        </mxCell>
        <mxCell id="bnlQOimCdnCWoGnJ-0to-47" style="edgeStyle=orthogonalEdgeStyle;rounded=0;orthogonalLoop=1;jettySize=auto;html=1;entryX=1;entryY=0.5;entryDx=0;entryDy=0;" parent="WIyWlLk6GJQsqaUBKTNV-1" source="bnlQOimCdnCWoGnJ-0to-27" target="bnlQOimCdnCWoGnJ-0to-25" edge="1">
          <mxGeometry relative="1" as="geometry" />
        </mxCell>
        <mxCell id="bnlQOimCdnCWoGnJ-0to-27" value="Jump" style="rounded=0;whiteSpace=wrap;html=1;" parent="WIyWlLk6GJQsqaUBKTNV-1" vertex="1">
          <mxGeometry x="280" y="550" width="80" height="40" as="geometry" />
        </mxCell>
        <mxCell id="bnlQOimCdnCWoGnJ-0to-42" style="edgeStyle=orthogonalEdgeStyle;rounded=0;orthogonalLoop=1;jettySize=auto;html=1;entryX=1;entryY=0.5;entryDx=0;entryDy=0;" parent="WIyWlLk6GJQsqaUBKTNV-1" source="bnlQOimCdnCWoGnJ-0to-28" target="bnlQOimCdnCWoGnJ-0to-26" edge="1">
          <mxGeometry relative="1" as="geometry">
            <Array as="points">
              <mxPoint x="470" y="760" />
              <mxPoint x="200" y="760" />
              <mxPoint x="200" y="610" />
            </Array>
          </mxGeometry>
        </mxCell>
        <mxCell id="bnlQOimCdnCWoGnJ-0to-43" style="edgeStyle=orthogonalEdgeStyle;rounded=0;orthogonalLoop=1;jettySize=auto;html=1;" parent="WIyWlLk6GJQsqaUBKTNV-1" source="bnlQOimCdnCWoGnJ-0to-28" target="bnlQOimCdnCWoGnJ-0to-25" edge="1">
          <mxGeometry relative="1" as="geometry">
            <Array as="points">
              <mxPoint x="470" y="760" />
              <mxPoint x="200" y="760" />
              <mxPoint x="200" y="690" />
            </Array>
          </mxGeometry>
        </mxCell>
        <mxCell id="bnlQOimCdnCWoGnJ-0to-28" value="Fall" style="rounded=0;whiteSpace=wrap;html=1;" parent="WIyWlLk6GJQsqaUBKTNV-1" vertex="1">
          <mxGeometry x="430" y="690" width="80" height="40" as="geometry" />
        </mxCell>
        <mxCell id="bnlQOimCdnCWoGnJ-0to-40" style="edgeStyle=orthogonalEdgeStyle;rounded=0;orthogonalLoop=1;jettySize=auto;html=1;entryX=1;entryY=0.5;entryDx=0;entryDy=0;" parent="WIyWlLk6GJQsqaUBKTNV-1" source="bnlQOimCdnCWoGnJ-0to-29" target="bnlQOimCdnCWoGnJ-0to-25" edge="1">
          <mxGeometry relative="1" as="geometry">
            <Array as="points">
              <mxPoint x="200" y="710" />
              <mxPoint x="200" y="690" />
            </Array>
          </mxGeometry>
        </mxCell>
        <mxCell id="bnlQOimCdnCWoGnJ-0to-41" style="edgeStyle=orthogonalEdgeStyle;rounded=0;orthogonalLoop=1;jettySize=auto;html=1;entryX=1;entryY=0.5;entryDx=0;entryDy=0;" parent="WIyWlLk6GJQsqaUBKTNV-1" source="bnlQOimCdnCWoGnJ-0to-29" target="bnlQOimCdnCWoGnJ-0to-26" edge="1">
          <mxGeometry relative="1" as="geometry">
            <Array as="points">
              <mxPoint x="200" y="710" />
              <mxPoint x="200" y="610" />
            </Array>
          </mxGeometry>
        </mxCell>
        <mxCell id="bnlQOimCdnCWoGnJ-0to-29" value="Land" style="rounded=0;whiteSpace=wrap;html=1;" parent="WIyWlLk6GJQsqaUBKTNV-1" vertex="1">
          <mxGeometry x="280" y="690" width="80" height="40" as="geometry" />
        </mxCell>
        <mxCell id="bnlQOimCdnCWoGnJ-0to-44" style="edgeStyle=orthogonalEdgeStyle;rounded=0;orthogonalLoop=1;jettySize=auto;html=1;entryX=1;entryY=0.5;entryDx=0;entryDy=0;" parent="WIyWlLk6GJQsqaUBKTNV-1" source="bnlQOimCdnCWoGnJ-0to-30" target="bnlQOimCdnCWoGnJ-0to-26" edge="1">
          <mxGeometry relative="1" as="geometry" />
        </mxCell>
        <mxCell id="bnlQOimCdnCWoGnJ-0to-45" style="edgeStyle=orthogonalEdgeStyle;rounded=0;orthogonalLoop=1;jettySize=auto;html=1;entryX=1;entryY=0.5;entryDx=0;entryDy=0;" parent="WIyWlLk6GJQsqaUBKTNV-1" source="bnlQOimCdnCWoGnJ-0to-30" target="bnlQOimCdnCWoGnJ-0to-25" edge="1">
          <mxGeometry relative="1" as="geometry" />
        </mxCell>
        <mxCell id="bnlQOimCdnCWoGnJ-0to-30" value="Attack" style="rounded=0;whiteSpace=wrap;html=1;" parent="WIyWlLk6GJQsqaUBKTNV-1" vertex="1">
          <mxGeometry x="280" y="790" width="80" height="40" as="geometry" />
        </mxCell>
        <mxCell id="bnlQOimCdnCWoGnJ-0to-32" value="doIdle?" style="text;html=1;strokeColor=none;fillColor=none;align=center;verticalAlign=middle;whiteSpace=wrap;rounded=0;" parent="WIyWlLk6GJQsqaUBKTNV-1" vertex="1">
          <mxGeometry x="120" y="630" width="80" height="30" as="geometry" />
        </mxCell>
        <mxCell id="bnlQOimCdnCWoGnJ-0to-34" value="doMove?" style="text;html=1;strokeColor=none;fillColor=none;align=center;verticalAlign=middle;whiteSpace=wrap;rounded=0;" parent="WIyWlLk6GJQsqaUBKTNV-1" vertex="1">
          <mxGeometry y="630" width="65" height="30" as="geometry" />
        </mxCell>
        <mxCell id="bnlQOimCdnCWoGnJ-0to-36" value="doLand?" style="text;html=1;strokeColor=none;fillColor=none;align=center;verticalAlign=middle;whiteSpace=wrap;rounded=0;" parent="WIyWlLk6GJQsqaUBKTNV-1" vertex="1">
          <mxGeometry x="325" y="610" width="85" height="60" as="geometry" />
        </mxCell>
        <mxCell id="bnlQOimCdnCWoGnJ-0to-38" value="doFall?" style="text;html=1;strokeColor=none;fillColor=none;align=center;verticalAlign=middle;whiteSpace=wrap;rounded=0;" parent="WIyWlLk6GJQsqaUBKTNV-1" vertex="1">
          <mxGeometry x="480" y="610" width="85" height="60" as="geometry" />
        </mxCell>
        <mxCell id="bnlQOimCdnCWoGnJ-0to-39" style="edgeStyle=orthogonalEdgeStyle;rounded=0;orthogonalLoop=1;jettySize=auto;html=1;exitX=0.5;exitY=1;exitDx=0;exitDy=0;" parent="WIyWlLk6GJQsqaUBKTNV-1" source="bnlQOimCdnCWoGnJ-0to-30" target="bnlQOimCdnCWoGnJ-0to-30" edge="1">
          <mxGeometry relative="1" as="geometry" />
        </mxCell>
        <mxCell id="bnlQOimCdnCWoGnJ-0to-49" value="Move" style="rounded=0;whiteSpace=wrap;html=1;" parent="WIyWlLk6GJQsqaUBKTNV-1" vertex="1">
          <mxGeometry x="40" y="990" width="80" height="40" as="geometry" />
        </mxCell>
        <mxCell id="bnlQOimCdnCWoGnJ-0to-51" value="Idle" style="rounded=0;whiteSpace=wrap;html=1;" parent="WIyWlLk6GJQsqaUBKTNV-1" vertex="1">
          <mxGeometry x="40" y="910" width="80" height="40" as="geometry" />
        </mxCell>
        <mxCell id="bnlQOimCdnCWoGnJ-0to-56" value="Jump" style="rounded=0;whiteSpace=wrap;html=1;" parent="WIyWlLk6GJQsqaUBKTNV-1" vertex="1">
          <mxGeometry x="270" y="910" width="80" height="40" as="geometry" />
        </mxCell>
        <mxCell id="bnlQOimCdnCWoGnJ-0to-59" value="Fall" style="rounded=0;whiteSpace=wrap;html=1;" parent="WIyWlLk6GJQsqaUBKTNV-1" vertex="1">
          <mxGeometry x="420" y="1010" width="80" height="40" as="geometry" />
        </mxCell>
        <mxCell id="bnlQOimCdnCWoGnJ-0to-62" value="Land" style="rounded=0;whiteSpace=wrap;html=1;" parent="WIyWlLk6GJQsqaUBKTNV-1" vertex="1">
          <mxGeometry x="270" y="1010" width="80" height="40" as="geometry" />
        </mxCell>
        <mxCell id="bnlQOimCdnCWoGnJ-0to-65" value="Attack" style="rounded=0;whiteSpace=wrap;html=1;" parent="WIyWlLk6GJQsqaUBKTNV-1" vertex="1">
          <mxGeometry x="270" y="1110" width="80" height="40" as="geometry" />
        </mxCell>
        <mxCell id="bnlQOimCdnCWoGnJ-0to-69" style="edgeStyle=orthogonalEdgeStyle;rounded=0;orthogonalLoop=1;jettySize=auto;html=1;exitX=0.5;exitY=1;exitDx=0;exitDy=0;" parent="WIyWlLk6GJQsqaUBKTNV-1" source="bnlQOimCdnCWoGnJ-0to-65" target="bnlQOimCdnCWoGnJ-0to-65" edge="1">
          <mxGeometry relative="1" as="geometry" />
        </mxCell>
        <mxCell id="bnlQOimCdnCWoGnJ-0to-78" style="edgeStyle=orthogonalEdgeStyle;rounded=0;orthogonalLoop=1;jettySize=auto;html=1;entryX=0;entryY=0.5;entryDx=0;entryDy=0;" parent="WIyWlLk6GJQsqaUBKTNV-1" source="bnlQOimCdnCWoGnJ-0to-70" target="bnlQOimCdnCWoGnJ-0to-72" edge="1">
          <mxGeometry relative="1" as="geometry" />
        </mxCell>
        <mxCell id="bnlQOimCdnCWoGnJ-0to-79" style="edgeStyle=orthogonalEdgeStyle;rounded=0;orthogonalLoop=1;jettySize=auto;html=1;entryX=0;entryY=0.75;entryDx=0;entryDy=0;" parent="WIyWlLk6GJQsqaUBKTNV-1" source="bnlQOimCdnCWoGnJ-0to-70" target="bnlQOimCdnCWoGnJ-0to-71" edge="1">
          <mxGeometry relative="1" as="geometry" />
        </mxCell>
        <mxCell id="bnlQOimCdnCWoGnJ-0to-80" style="edgeStyle=orthogonalEdgeStyle;rounded=0;orthogonalLoop=1;jettySize=auto;html=1;entryX=0;entryY=0.75;entryDx=0;entryDy=0;" parent="WIyWlLk6GJQsqaUBKTNV-1" source="bnlQOimCdnCWoGnJ-0to-70" target="bnlQOimCdnCWoGnJ-0to-73" edge="1">
          <mxGeometry relative="1" as="geometry" />
        </mxCell>
        <mxCell id="bnlQOimCdnCWoGnJ-0to-81" style="edgeStyle=orthogonalEdgeStyle;rounded=0;orthogonalLoop=1;jettySize=auto;html=1;entryX=0;entryY=0.75;entryDx=0;entryDy=0;" parent="WIyWlLk6GJQsqaUBKTNV-1" source="bnlQOimCdnCWoGnJ-0to-70" target="bnlQOimCdnCWoGnJ-0to-75" edge="1">
          <mxGeometry relative="1" as="geometry" />
        </mxCell>
        <mxCell id="bnlQOimCdnCWoGnJ-0to-82" style="edgeStyle=orthogonalEdgeStyle;rounded=0;orthogonalLoop=1;jettySize=auto;html=1;entryX=0;entryY=0.75;entryDx=0;entryDy=0;" parent="WIyWlLk6GJQsqaUBKTNV-1" source="bnlQOimCdnCWoGnJ-0to-70" target="bnlQOimCdnCWoGnJ-0to-76" edge="1">
          <mxGeometry relative="1" as="geometry" />
        </mxCell>
        <mxCell id="bnlQOimCdnCWoGnJ-0to-83" style="edgeStyle=orthogonalEdgeStyle;rounded=0;orthogonalLoop=1;jettySize=auto;html=1;entryX=0;entryY=0.75;entryDx=0;entryDy=0;" parent="WIyWlLk6GJQsqaUBKTNV-1" source="bnlQOimCdnCWoGnJ-0to-70" target="bnlQOimCdnCWoGnJ-0to-74" edge="1">
          <mxGeometry relative="1" as="geometry" />
        </mxCell>
        <mxCell id="bnlQOimCdnCWoGnJ-0to-70" value="AnyState" style="rounded=0;whiteSpace=wrap;html=1;" parent="WIyWlLk6GJQsqaUBKTNV-1" vertex="1">
          <mxGeometry x="660" y="580" width="90" height="40" as="geometry" />
        </mxCell>
        <mxCell id="bnlQOimCdnCWoGnJ-0to-71" value="Move" style="rounded=0;whiteSpace=wrap;html=1;" parent="WIyWlLk6GJQsqaUBKTNV-1" vertex="1">
          <mxGeometry x="800" y="630" width="80" height="40" as="geometry" />
        </mxCell>
        <mxCell id="bnlQOimCdnCWoGnJ-0to-72" value="Idle" style="rounded=0;whiteSpace=wrap;html=1;" parent="WIyWlLk6GJQsqaUBKTNV-1" vertex="1">
          <mxGeometry x="800" y="580" width="80" height="40" as="geometry" />
        </mxCell>
        <mxCell id="bnlQOimCdnCWoGnJ-0to-73" value="Jump" style="rounded=0;whiteSpace=wrap;html=1;" parent="WIyWlLk6GJQsqaUBKTNV-1" vertex="1">
          <mxGeometry x="800" y="680" width="80" height="40" as="geometry" />
        </mxCell>
        <mxCell id="bnlQOimCdnCWoGnJ-0to-74" value="Fall" style="rounded=0;whiteSpace=wrap;html=1;" parent="WIyWlLk6GJQsqaUBKTNV-1" vertex="1">
          <mxGeometry x="800" y="830" width="80" height="40" as="geometry" />
        </mxCell>
        <mxCell id="bnlQOimCdnCWoGnJ-0to-75" value="Land" style="rounded=0;whiteSpace=wrap;html=1;" parent="WIyWlLk6GJQsqaUBKTNV-1" vertex="1">
          <mxGeometry x="800" y="730" width="80" height="40" as="geometry" />
        </mxCell>
        <mxCell id="bnlQOimCdnCWoGnJ-0to-76" value="Attack" style="rounded=0;whiteSpace=wrap;html=1;" parent="WIyWlLk6GJQsqaUBKTNV-1" vertex="1">
          <mxGeometry x="800" y="780" width="80" height="40" as="geometry" />
        </mxCell>
        <mxCell id="bnlQOimCdnCWoGnJ-0to-77" style="edgeStyle=orthogonalEdgeStyle;rounded=0;orthogonalLoop=1;jettySize=auto;html=1;exitX=0.5;exitY=1;exitDx=0;exitDy=0;" parent="WIyWlLk6GJQsqaUBKTNV-1" source="bnlQOimCdnCWoGnJ-0to-76" target="bnlQOimCdnCWoGnJ-0to-76" edge="1">
          <mxGeometry relative="1" as="geometry" />
        </mxCell>
        <mxCell id="bnlQOimCdnCWoGnJ-0to-84" value="«interface»&lt;br&gt;&lt;b&gt;IEnumerator&amp;lt;T&amp;gt;&lt;br&gt;&lt;/b&gt;&lt;br&gt;{get} current : T&lt;br&gt;MoveNext() : bool&lt;br&gt;Reset() : void" style="html=1;whiteSpace=wrap;" parent="WIyWlLk6GJQsqaUBKTNV-1" vertex="1">
          <mxGeometry x="660" y="40" width="110" height="125" as="geometry" />
        </mxCell>
        <mxCell id="bnlQOimCdnCWoGnJ-0to-85" value="«interface»&lt;br&gt;&lt;b&gt;IWorkflow&amp;lt;T&amp;gt;&lt;br&gt;where T : Enum&lt;br&gt;&lt;/b&gt;&lt;br&gt;{get} type : T&lt;br&gt;{get} current : int&lt;br&gt;MoveNext() : T&lt;br&gt;Reset() : void" style="html=1;whiteSpace=wrap;" parent="WIyWlLk6GJQsqaUBKTNV-1" vertex="1">
          <mxGeometry x="935" y="326" width="130" height="130" as="geometry" />
        </mxCell>
        <mxCell id="bnlQOimCdnCWoGnJ-0to-86" value="«enum»&lt;br&gt;&lt;b&gt;GameState&lt;br&gt;&lt;br&gt;Idle,&lt;br&gt;LoadData,&lt;br&gt;WaitUntilDataLoaded&lt;br&gt;StartPlay&lt;br&gt;&lt;/b&gt;" style="html=1;whiteSpace=wrap;" parent="WIyWlLk6GJQsqaUBKTNV-1" vertex="1">
          <mxGeometry x="-180" y="100" width="80" height="130" as="geometry" />
        </mxCell>
        <mxCell id="bnlQOimCdnCWoGnJ-0to-87" value="Idle" style="swimlane;fontStyle=1;align=center;verticalAlign=top;childLayout=stackLayout;horizontal=1;startSize=26;horizontalStack=0;resizeParent=1;resizeParentMax=0;resizeLast=0;collapsible=1;marginBottom=0;whiteSpace=wrap;html=1;" parent="WIyWlLk6GJQsqaUBKTNV-1" vertex="1">
          <mxGeometry x="1140" y="374" width="160" height="34" as="geometry" />
        </mxCell>
        <mxCell id="bnlQOimCdnCWoGnJ-0to-89" value="" style="line;strokeWidth=1;fillColor=none;align=left;verticalAlign=middle;spacingTop=-1;spacingLeft=3;spacingRight=3;rotatable=0;labelPosition=right;points=[];portConstraint=eastwest;strokeColor=inherit;" parent="bnlQOimCdnCWoGnJ-0to-87" vertex="1">
          <mxGeometry y="26" width="160" height="8" as="geometry" />
        </mxCell>
        <mxCell id="bnlQOimCdnCWoGnJ-0to-91" value="" style="endArrow=block;endSize=16;endFill=0;html=1;rounded=0;" parent="WIyWlLk6GJQsqaUBKTNV-1" source="bnlQOimCdnCWoGnJ-0to-87" target="bnlQOimCdnCWoGnJ-0to-85" edge="1">
          <mxGeometry width="160" relative="1" as="geometry">
            <mxPoint x="1200" y="434" as="sourcePoint" />
            <mxPoint x="1360" y="434" as="targetPoint" />
            <Array as="points">
              <mxPoint x="1100" y="391" />
            </Array>
          </mxGeometry>
        </mxCell>
        <mxCell id="bnlQOimCdnCWoGnJ-0to-92" value="Move" style="swimlane;fontStyle=1;align=center;verticalAlign=top;childLayout=stackLayout;horizontal=1;startSize=26;horizontalStack=0;resizeParent=1;resizeParentMax=0;resizeLast=0;collapsible=1;marginBottom=0;whiteSpace=wrap;html=1;" parent="WIyWlLk6GJQsqaUBKTNV-1" vertex="1">
          <mxGeometry x="1140" y="408" width="160" height="34" as="geometry" />
        </mxCell>
        <mxCell id="bnlQOimCdnCWoGnJ-0to-93" value="" style="line;strokeWidth=1;fillColor=none;align=left;verticalAlign=middle;spacingTop=-1;spacingLeft=3;spacingRight=3;rotatable=0;labelPosition=right;points=[];portConstraint=eastwest;strokeColor=inherit;" parent="bnlQOimCdnCWoGnJ-0to-92" vertex="1">
          <mxGeometry y="26" width="160" height="8" as="geometry" />
        </mxCell>
        <mxCell id="bnlQOimCdnCWoGnJ-0to-94" value="Jump" style="swimlane;fontStyle=1;align=center;verticalAlign=top;childLayout=stackLayout;horizontal=1;startSize=26;horizontalStack=0;resizeParent=1;resizeParentMax=0;resizeLast=0;collapsible=1;marginBottom=0;whiteSpace=wrap;html=1;" parent="WIyWlLk6GJQsqaUBKTNV-1" vertex="1">
          <mxGeometry x="1140" y="442" width="160" height="34" as="geometry" />
        </mxCell>
        <mxCell id="bnlQOimCdnCWoGnJ-0to-95" value="" style="line;strokeWidth=1;fillColor=none;align=left;verticalAlign=middle;spacingTop=-1;spacingLeft=3;spacingRight=3;rotatable=0;labelPosition=right;points=[];portConstraint=eastwest;strokeColor=inherit;" parent="bnlQOimCdnCWoGnJ-0to-94" vertex="1">
          <mxGeometry y="26" width="160" height="8" as="geometry" />
        </mxCell>
        <mxCell id="bnlQOimCdnCWoGnJ-0to-96" value="Attack" style="swimlane;fontStyle=1;align=center;verticalAlign=top;childLayout=stackLayout;horizontal=1;startSize=26;horizontalStack=0;resizeParent=1;resizeParentMax=0;resizeLast=0;collapsible=1;marginBottom=0;whiteSpace=wrap;html=1;" parent="WIyWlLk6GJQsqaUBKTNV-1" vertex="1">
          <mxGeometry x="1140" y="476" width="160" height="34" as="geometry" />
        </mxCell>
        <mxCell id="bnlQOimCdnCWoGnJ-0to-97" value="" style="line;strokeWidth=1;fillColor=none;align=left;verticalAlign=middle;spacingTop=-1;spacingLeft=3;spacingRight=3;rotatable=0;labelPosition=right;points=[];portConstraint=eastwest;strokeColor=inherit;" parent="bnlQOimCdnCWoGnJ-0to-96" vertex="1">
          <mxGeometry y="26" width="160" height="8" as="geometry" />
        </mxCell>
        <mxCell id="GsF63oC_604vNOR1dG97-15" style="edgeStyle=orthogonalEdgeStyle;rounded=0;orthogonalLoop=1;jettySize=auto;html=1;entryX=0;entryY=0.5;entryDx=0;entryDy=0;" parent="WIyWlLk6GJQsqaUBKTNV-1" source="bnlQOimCdnCWoGnJ-0to-98" target="GsF63oC_604vNOR1dG97-13" edge="1">
          <mxGeometry relative="1" as="geometry" />
        </mxCell>
        <mxCell id="bnlQOimCdnCWoGnJ-0to-98" value="CharacterMachine" style="swimlane;fontStyle=1;align=center;verticalAlign=top;childLayout=stackLayout;horizontal=1;startSize=26;horizontalStack=0;resizeParent=1;resizeParentMax=0;resizeLast=0;collapsible=1;marginBottom=0;whiteSpace=wrap;html=1;fillColor=#1ba1e2;fontColor=#ffffff;strokeColor=#006EAF;" parent="WIyWlLk6GJQsqaUBKTNV-1" vertex="1">
          <mxGeometry x="850" y="135" width="300" height="138" as="geometry" />
        </mxCell>
        <mxCell id="bnlQOimCdnCWoGnJ-0to-122" value="+ current : State" style="text;strokeColor=none;fillColor=none;align=left;verticalAlign=top;spacingLeft=4;spacingRight=4;overflow=hidden;rotatable=0;points=[[0,0.5],[1,0.5]];portConstraint=eastwest;whiteSpace=wrap;html=1;" parent="bnlQOimCdnCWoGnJ-0to-98" vertex="1">
          <mxGeometry y="26" width="300" height="26" as="geometry" />
        </mxCell>
        <mxCell id="bnlQOimCdnCWoGnJ-0to-108" value="+ workflows : Dictionary&amp;lt;State, IWorkflow&amp;lt;State&amp;gt;&amp;gt;" style="text;strokeColor=none;fillColor=none;align=left;verticalAlign=top;spacingLeft=4;spacingRight=4;overflow=hidden;rotatable=0;points=[[0,0.5],[1,0.5]];portConstraint=eastwest;whiteSpace=wrap;html=1;" parent="bnlQOimCdnCWoGnJ-0to-98" vertex="1">
          <mxGeometry y="52" width="300" height="26" as="geometry" />
        </mxCell>
        <mxCell id="bnlQOimCdnCWoGnJ-0to-100" value="" style="line;strokeWidth=1;fillColor=none;align=left;verticalAlign=middle;spacingTop=-1;spacingLeft=3;spacingRight=3;rotatable=0;labelPosition=right;points=[];portConstraint=eastwest;strokeColor=inherit;" parent="bnlQOimCdnCWoGnJ-0to-98" vertex="1">
          <mxGeometry y="78" width="300" height="8" as="geometry" />
        </mxCell>
        <mxCell id="ZNiXKqvvG7-JJ7bFIcSB-0" value="+ Initialize(copy) : void" style="text;strokeColor=none;fillColor=none;align=left;verticalAlign=top;spacingLeft=4;spacingRight=4;overflow=hidden;rotatable=0;points=[[0,0.5],[1,0.5]];portConstraint=eastwest;whiteSpace=wrap;html=1;" vertex="1" parent="bnlQOimCdnCWoGnJ-0to-98">
          <mxGeometry y="86" width="300" height="26" as="geometry" />
        </mxCell>
        <mxCell id="bnlQOimCdnCWoGnJ-0to-121" value="+ ChangeState(newState : State) : bool" style="text;strokeColor=none;fillColor=none;align=left;verticalAlign=top;spacingLeft=4;spacingRight=4;overflow=hidden;rotatable=0;points=[[0,0.5],[1,0.5]];portConstraint=eastwest;whiteSpace=wrap;html=1;" parent="bnlQOimCdnCWoGnJ-0to-98" vertex="1">
          <mxGeometry y="112" width="300" height="26" as="geometry" />
        </mxCell>
        <mxCell id="bnlQOimCdnCWoGnJ-0to-102" value="1" style="endArrow=open;html=1;endSize=12;startArrow=diamondThin;startSize=14;startFill=1;edgeStyle=orthogonalEdgeStyle;align=left;verticalAlign=bottom;rounded=0;" parent="WIyWlLk6GJQsqaUBKTNV-1" target="bnlQOimCdnCWoGnJ-0to-85" edge="1" source="bnlQOimCdnCWoGnJ-0to-98">
          <mxGeometry x="-0.4177" y="10" relative="1" as="geometry">
            <mxPoint x="1000" y="273" as="sourcePoint" />
            <mxPoint x="1220" y="374" as="targetPoint" />
            <mxPoint as="offset" />
          </mxGeometry>
        </mxCell>
        <mxCell id="bnlQOimCdnCWoGnJ-0to-103" value="n" style="text;html=1;strokeColor=none;fillColor=none;align=center;verticalAlign=middle;whiteSpace=wrap;rounded=0;" parent="WIyWlLk6GJQsqaUBKTNV-1" vertex="1">
          <mxGeometry x="1005" y="304" width="25" height="22" as="geometry" />
        </mxCell>
        <mxCell id="bnlQOimCdnCWoGnJ-0to-111" value="Update" style="html=1;whiteSpace=wrap;fillColor=#1ba1e2;fontColor=#ffffff;strokeColor=#006EAF;" parent="WIyWlLk6GJQsqaUBKTNV-1" vertex="1">
          <mxGeometry x="850" y="40" width="80" height="20" as="geometry" />
        </mxCell>
        <mxCell id="bnlQOimCdnCWoGnJ-0to-119" value="FixedUpdate" style="html=1;whiteSpace=wrap;fillColor=#fa6800;fontColor=#000000;strokeColor=#C73500;" parent="WIyWlLk6GJQsqaUBKTNV-1" vertex="1">
          <mxGeometry x="850" y="60" width="80" height="20" as="geometry" />
        </mxCell>
        <mxCell id="bnlQOimCdnCWoGnJ-0to-120" value="LateUpdate" style="html=1;whiteSpace=wrap;fillColor=#e3c800;fontColor=#000000;strokeColor=#B09500;" parent="WIyWlLk6GJQsqaUBKTNV-1" vertex="1">
          <mxGeometry x="850" y="80" width="80" height="20" as="geometry" />
        </mxCell>
        <mxCell id="GsF63oC_604vNOR1dG97-13" value="CharacterStateWorkflows&lt;br&gt;DataSheet" style="swimlane;fontStyle=1;align=center;verticalAlign=top;childLayout=stackLayout;horizontal=1;startSize=42;horizontalStack=0;resizeParent=1;resizeParentMax=0;resizeLast=0;collapsible=1;marginBottom=0;whiteSpace=wrap;html=1;" parent="WIyWlLk6GJQsqaUBKTNV-1" vertex="1">
          <mxGeometry x="1210" y="179" width="160" height="50" as="geometry" />
        </mxCell>
        <mxCell id="GsF63oC_604vNOR1dG97-14" value="" style="line;strokeWidth=1;fillColor=none;align=left;verticalAlign=middle;spacingTop=-1;spacingLeft=3;spacingRight=3;rotatable=0;labelPosition=right;points=[];portConstraint=eastwest;strokeColor=inherit;" parent="GsF63oC_604vNOR1dG97-13" vertex="1">
          <mxGeometry y="42" width="160" height="8" as="geometry" />
        </mxCell>
      </root>
    </mxGraphModel>
  </diagram>
</mxfile>
